<svg width="60" height="60" viewBox="0 0 60 60" fill="none" xmlns="http://www.w3.org/2000/svg">
<path d="M40.0707 57.138H11.7668C11.5548 57.138 11.3428 56.926 11.3428 56.714V6.14863C11.3428 5.93662 11.5548 5.72461 11.7668 5.72461H40.0707C40.2827 5.72461 40.4947 5.93662 40.4947 6.14863V56.714C40.3887 56.926 40.2827 57.138 40.0707 57.138ZM12.1908 56.29H39.6466V6.57267H12.1908V56.29Z" fill="#0568C3"/>
<path d="M11.7668 57.1385H0.424022C0.212008 57.1385 0 56.9265 0 56.7145V18.976C0 18.87 0.10602 18.658 0.212027 18.658C0.318034 18.552 0.530042 18.658 0.636049 18.764L11.9788 29.3647C12.0848 29.4707 12.0848 29.5767 12.0848 29.6827V56.7145C12.1908 56.9265 11.9788 57.1385 11.7668 57.1385ZM0.848076 56.2905H11.3428V29.7887L0.848076 19.93V56.2905Z" fill="#0568C3"/>
<path d="M56.0778 57.1385H47.3852C47.1732 57.1385 46.9612 56.9265 46.9612 56.7145V17.5979C46.9612 17.4919 47.0672 17.2798 47.1732 17.2798C47.2792 17.1738 47.4912 17.2798 47.5972 17.3859L56.2898 25.1244C56.5018 25.1244 56.5018 25.2304 56.5018 25.3364V56.7145C56.5018 56.9265 56.2898 57.1385 56.0778 57.1385ZM47.8092 56.2905H55.7598V25.5484L47.8092 18.5519V56.2905Z" fill="#0568C3"/>
<path d="M47.3852 57.1378H39.9647C39.7527 57.1378 39.5407 56.9258 39.5407 56.7138V6.57244H33.1803C32.9683 6.57244 32.7562 6.36041 32.7562 6.1484V3.92226H24.3817C24.1696 3.92226 23.9576 3.71024 23.9576 3.49822V0.424022C23.9576 0.212008 24.1696 0 24.3817 0H47.3852C47.5972 0 47.8092 0.212008 47.8092 0.424022V56.7138C47.8092 56.9258 47.5972 57.1378 47.3852 57.1378ZM40.3887 56.2898H47.0672V0.742046H24.9117V2.96819H33.2863C33.4983 2.96819 33.7103 3.18021 33.7103 3.39222V5.61836H40.0707C40.2827 5.61836 40.4948 5.83039 40.4948 6.0424L40.3887 56.2898Z" fill="#0568C3"/>
<path d="M15.583 57.1381C15.3709 57.1381 15.1589 56.9261 15.1589 56.714V13.9932C15.1589 13.7812 15.3709 13.5691 15.583 13.5691C15.795 13.5691 16.007 13.7812 16.007 13.9932V56.714C16.007 56.9261 15.795 57.1381 15.583 57.1381Z" fill="#0568C3"/>
<path d="M19.7174 57.1381C19.5053 57.1381 19.2933 56.9261 19.2933 56.714V13.9932C19.2933 13.7812 19.5053 13.5691 19.7174 13.5691C19.9294 13.5691 20.1414 13.7812 20.1414 13.9932V56.714C20.1414 56.9261 19.9294 57.1381 19.7174 57.1381Z" fill="#0568C3"/>
<path d="M23.9575 57.1381C23.7455 57.1381 23.5334 56.9261 23.5334 56.714V13.9932C23.5334 13.7812 23.7455 13.5691 23.9575 13.5691C24.1695 13.5691 24.3815 13.7812 24.3815 13.9932V56.714C24.3815 56.9261 24.1695 57.1381 23.9575 57.1381Z" fill="#0568C3"/>
<path d="M28.0919 57.1381C27.8799 57.1381 27.6678 56.9261 27.6678 56.714V13.9932C27.6678 13.7812 27.8799 13.5691 28.0919 13.5691C28.3039 13.5691 28.5159 13.7812 28.5159 13.9932V56.714C28.4099 56.9261 28.3039 57.1381 28.0919 57.1381Z" fill="#0568C3"/>
<path d="M32.2263 57.1381C32.0143 57.1381 31.8022 56.9261 31.8022 56.714V13.9932C31.8022 13.7812 32.0143 13.5691 32.2263 13.5691C32.4383 13.5691 32.6503 13.7812 32.6503 13.9932V56.714C32.5443 56.9261 32.4383 57.1381 32.2263 57.1381Z" fill="#0568C3"/>
<path d="M36.4664 57.1381C36.2544 57.1381 36.0424 56.9261 36.0424 56.714V13.9932C36.0424 13.7812 36.2544 13.5691 36.4664 13.5691C36.6784 13.5691 36.8904 13.7812 36.8904 13.9932V56.714C36.7844 56.9261 36.6784 57.1381 36.4664 57.1381Z" fill="#0568C3"/>
<path d="M4.66426 30.7429C4.45224 30.7429 4.24023 30.5309 4.24023 30.3188V27.0326C4.24023 26.8206 4.45224 26.6086 4.66426 26.6086C4.87627 26.6086 5.08831 26.8206 5.08831 27.0326V30.3188C5.08831 30.5309 4.87627 30.7429 4.66426 30.7429Z" fill="#0568C3"/>
<path d="M4.66426 38.4808C4.45224 38.4808 4.24023 38.2687 4.24023 38.0567V34.7705C4.24023 34.5585 4.45224 34.3465 4.66426 34.3465C4.87627 34.3465 5.08831 34.5585 5.08831 34.7705V38.0567C5.08831 38.2687 4.87627 38.4808 4.66426 38.4808Z" fill="#0568C3"/>
<path d="M4.66426 46.2187C4.45224 46.2187 4.24023 46.0066 4.24023 45.7946V42.5084C4.24023 42.2964 4.45224 42.0844 4.66426 42.0844C4.87627 42.0844 5.08831 42.2964 5.08831 42.5084V45.7946C5.08831 46.0066 4.87627 46.2187 4.66426 46.2187Z" fill="#0568C3"/>
<path d="M4.66426 53.8511C4.45224 53.8511 4.24023 53.6391 4.24023 53.427V50.1408C4.24023 49.9288 4.45224 49.7168 4.66426 49.7168C4.87627 49.7168 5.08831 49.9288 5.08831 50.1408V53.427C5.08831 53.7451 4.87627 53.8511 4.66426 53.8511Z" fill="#0568C3"/>
<path d="M8.16255 38.4808C7.95053 38.4808 7.73853 38.2687 7.73853 38.0567V34.7705C7.73853 34.5585 7.95053 34.3465 8.16255 34.3465C8.37456 34.3465 8.58657 34.5585 8.58657 34.7705V38.0567C8.58657 38.2687 8.37456 38.4808 8.16255 38.4808Z" fill="#0568C3"/>
<path d="M8.16255 46.2187C7.95053 46.2187 7.73853 46.0066 7.73853 45.7946V42.5084C7.73853 42.2964 7.95053 42.0844 8.16255 42.0844C8.37456 42.0844 8.58657 42.2964 8.58657 42.5084V45.7946C8.58657 46.0066 8.37456 46.2187 8.16255 46.2187Z" fill="#0568C3"/>
<path d="M8.16255 53.8511C7.95053 53.8511 7.73853 53.6391 7.73853 53.427V50.1408C7.73853 49.9288 7.95053 49.7168 8.16255 49.7168C8.37456 49.7168 8.58657 49.9288 8.58657 50.1408V53.427C8.58657 53.7451 8.37456 53.8511 8.16255 53.8511Z" fill="#0568C3"/>
<path d="M50.2473 29.3648C50.0352 29.3648 49.8232 29.1527 49.8232 28.9407V25.6545C49.8232 25.4425 50.0352 25.2305 50.2473 25.2305C50.4593 25.2305 50.6713 25.4425 50.6713 25.6545V28.9407C50.6713 29.2587 50.4593 29.3648 50.2473 29.3648Z" fill="#0568C3"/>
<path d="M53.3216 29.3648C53.1096 29.3648 52.8976 29.1527 52.8976 28.9407V25.6545C52.8976 25.4425 53.1096 25.2305 53.3216 25.2305C53.5337 25.2305 53.7457 25.4425 53.7457 25.6545V28.9407C53.7457 29.2587 53.5337 29.3648 53.3216 29.3648Z" fill="#0568C3"/>
<path d="M50.2473 36.2542C50.0352 36.2542 49.8232 36.0422 49.8232 35.8302V32.544C49.8232 32.3319 50.0352 32.1199 50.2473 32.1199C50.4593 32.1199 50.6713 32.3319 50.6713 32.544V35.9362C50.6713 36.1482 50.4593 36.2542 50.2473 36.2542Z" fill="#0568C3"/>
<path d="M53.3216 36.2542C53.1096 36.2542 52.8976 36.0422 52.8976 35.8302V32.544C52.8976 32.3319 53.1096 32.1199 53.3216 32.1199C53.5337 32.1199 53.7457 32.3319 53.7457 32.544V35.9362C53.7457 36.1482 53.5337 36.2542 53.3216 36.2542Z" fill="#0568C3"/>
<path d="M50.2473 43.0382C50.0352 43.0382 49.8232 42.8262 49.8232 42.6141V39.3279C49.8232 39.1159 50.0352 38.9039 50.2473 38.9039C50.4593 38.9039 50.6713 39.1159 50.6713 39.3279V42.6141C50.6713 42.9322 50.4593 43.0382 50.2473 43.0382Z" fill="#0568C3"/>
<path d="M53.3216 43.0382C53.1096 43.0382 52.8976 42.8262 52.8976 42.6141V39.3279C52.8976 39.1159 53.1096 38.9039 53.3216 38.9039C53.5337 38.9039 53.7457 39.1159 53.7457 39.3279V42.6141C53.7457 42.9322 53.5337 43.0382 53.3216 43.0382Z" fill="#0568C3"/>
<path d="M50.2473 49.9288C50.0352 49.9288 49.8232 49.7168 49.8232 49.5048V46.2185C49.8232 46.0065 50.0352 45.7945 50.2473 45.7945C50.4593 45.7945 50.6713 46.0065 50.6713 46.2185V49.5048C50.6713 49.8228 50.4593 49.9288 50.2473 49.9288Z" fill="#0568C3"/>
<path d="M53.3216 49.9288C53.1096 49.9288 52.8976 49.7168 52.8976 49.5048V46.2185C52.8976 46.0065 53.1096 45.7945 53.3216 45.7945C53.5337 45.7945 53.7457 46.0065 53.7457 46.2185V49.5048C53.7457 49.8228 53.5337 49.9288 53.3216 49.9288Z" fill="#0568C3"/>
<path d="M50.2474 56.714C50.0354 56.714 49.8234 56.5019 49.8234 56.2899V53.0037C49.8234 52.7917 50.0354 52.5797 50.2474 52.5797C50.4594 52.5797 50.6714 52.7917 50.6714 53.0037V56.2899C50.6714 56.6079 50.4594 56.714 50.2474 56.714Z" fill="#0568C3"/>
<path d="M53.3215 56.714C53.1095 56.714 52.8975 56.5019 52.8975 56.2899V53.0037C52.8975 52.7917 53.1095 52.5797 53.3215 52.5797C53.5335 52.5797 53.7455 52.7917 53.7455 53.0037V56.2899C53.7455 56.6079 53.5335 56.714 53.3215 56.714Z" fill="#0568C3"/>
<path d="M33.1803 6.67869H18.4453C18.2332 6.67869 18.0212 6.46668 18.0212 6.25467V3.60449C18.0212 3.39247 18.2332 3.18047 18.4453 3.18047H33.1803C33.3923 3.18047 33.6043 3.39247 33.6043 3.60449V6.25467C33.6043 6.46668 33.3923 6.67869 33.1803 6.67869ZM18.8693 5.72463H32.7562V3.8165H18.8693V5.72463Z" fill="#0568C3"/>
<path d="M37.4205 59.9996H4.77452C4.5625 59.9996 4.35046 59.7876 4.35046 59.5756C4.35046 59.3636 4.5625 59.1516 4.77452 59.1516H37.4205C37.6325 59.1516 37.8445 59.3636 37.8445 59.5756C37.8445 59.7876 37.6325 59.9996 37.4205 59.9996Z" fill="#0568C3"/>
<path d="M59.1053 59.9996H46.4056C46.1936 59.9996 45.9816 59.7876 45.9816 59.5756C45.9816 59.3636 46.1936 59.1516 46.4056 59.1516H59.1053C59.3173 59.1516 59.5293 59.3636 59.5293 59.5756C59.5293 59.7876 59.3173 59.9996 59.1053 59.9996Z" fill="#0568C3"/>
</svg>
