<svg width="61" height="62" viewBox="0 0 61 62" fill="none" xmlns="http://www.w3.org/2000/svg">
<path d="M52.967 58.8451H8.66433C8.45387 58.8451 8.24341 58.6347 8.24341 58.4242V31.8006C8.24341 31.5901 8.45387 31.3796 8.66433 31.3796H53.0722C53.2827 31.3796 53.4931 31.5901 53.4931 31.8006V58.4242C53.4931 58.6347 53.2827 58.8451 52.967 58.8451ZM9.08525 57.8981H52.546V32.3267H9.08525V57.8981Z" fill="#0568C3"/>
<path d="M19.398 58.8451H8.66433C8.45387 58.8451 8.24341 58.6347 8.24341 58.4242V18.2256C8.24341 18.0152 8.45387 17.8047 8.66433 17.8047H19.398C19.6085 17.8047 19.8189 18.0152 19.8189 18.2256V58.4242C19.8189 58.6347 19.6085 58.8451 19.398 58.8451ZM9.08525 57.898H18.8718V18.7518H9.08525V57.898Z" fill="#0568C3"/>
<path d="M19.398 18.7514H8.66433C8.45387 18.7514 8.24341 18.5409 8.24341 18.3304V15.4892C8.24341 15.2787 8.45387 15.0682 8.66433 15.0682H19.398C19.6085 15.0682 19.8189 15.2787 19.8189 15.4892V18.3304C19.8189 18.5409 19.6085 18.7514 19.398 18.7514ZM9.08525 17.8043H18.8718V15.9101H9.08525V17.8043Z" fill="#0568C3"/>
<path d="M16.8724 15.9099H11.1898C10.9794 15.9099 10.7689 15.6995 10.7689 15.489V12.753C10.7689 12.5425 10.9794 12.332 11.1898 12.332H16.8724C17.0829 12.332 17.2933 12.5425 17.2933 12.753V15.489C17.2933 15.6995 17.0829 15.9099 16.8724 15.9099ZM11.716 14.9628H16.4514V13.1739H11.716V14.9628Z" fill="#0568C3"/>
<path d="M52.967 58.845H8.66433C8.45387 58.845 8.24341 58.6345 8.24341 58.4241V53.5834C8.24341 53.3729 8.45387 53.1625 8.66433 53.1625H30.8683H53.0722C53.2827 53.1625 53.4931 53.3729 53.4931 53.5834V58.4241C53.4931 58.6345 53.2827 58.845 52.967 58.845ZM9.08525 57.8979H52.546V54.0043H30.8156H9.08525V57.8979Z" fill="#0568C3"/>
<path d="M25.3964 51.8991H21.5028C21.2924 51.8991 21.0819 51.6887 21.0819 51.4782V37.1667C21.0819 36.9562 21.2924 36.7457 21.5028 36.7457H25.3964C25.6069 36.7457 25.8173 36.9562 25.8173 37.1667V51.4782C25.9226 51.6887 25.7121 51.8991 25.3964 51.8991ZM21.9238 50.952H24.8702V37.5876H21.9238V50.952Z" fill="#0568C3"/>
<path d="M31.9205 51.8991H28.0269C27.8164 51.8991 27.606 51.6887 27.606 51.4782V37.1667C27.606 36.9562 27.8164 36.7457 28.0269 36.7457H31.9205C32.1309 36.7457 32.3414 36.9562 32.3414 37.1667V51.4782C32.3414 51.6887 32.1309 51.8991 31.9205 51.8991ZM28.3426 50.952H31.2891V37.5876H28.3426V50.952Z" fill="#0568C3"/>
<path d="M38.2347 51.8991H34.2359C34.0254 51.8991 33.8149 51.6887 33.8149 51.4782V37.1667C33.8149 36.9562 34.0254 36.7457 34.2359 36.7457H38.2347C38.4452 36.7457 38.6556 36.9562 38.6556 37.1667V51.4782C38.7608 51.6887 38.5504 51.8991 38.2347 51.8991ZM34.7621 50.952H37.8138V37.5876H34.7621V50.952Z" fill="#0568C3"/>
<path d="M44.7591 51.8991H40.7603C40.5498 51.8991 40.3394 51.6887 40.3394 51.4782V37.1667C40.3394 36.9562 40.5498 36.7457 40.7603 36.7457H44.7591C44.9696 36.7457 45.18 36.9562 45.18 37.1667V51.4782C45.18 51.6887 44.9696 51.8991 44.7591 51.8991ZM41.2864 50.952H44.3382V37.5876H41.2864V50.952Z" fill="#0568C3"/>
<path d="M51.1781 51.8991H47.1793C46.9689 51.8991 46.7584 51.6887 46.7584 51.4782V37.1667C46.7584 36.9562 46.9689 36.7457 47.1793 36.7457H51.0729C51.2834 36.7457 51.4939 36.9562 51.4939 37.1667V51.4782C51.7043 51.6887 51.4938 51.8991 51.1781 51.8991ZM47.6003 50.952H50.652V37.5876H47.6003V50.952Z" fill="#0568C3"/>
<path d="M14.4523 11.8061C13.1895 11.8061 12.1372 10.7537 12.1372 9.49095C12.1372 8.22817 13.1895 7.17585 14.4523 7.17585C14.5575 7.17585 14.6628 7.17585 14.6628 7.17585C14.6628 7.17585 14.6628 7.17585 14.6628 7.07062C14.6628 5.7026 15.9255 3.91366 17.504 3.91366C17.6092 3.91366 17.7145 3.91366 17.7145 3.91366C17.7145 3.91366 17.7145 3.91367 17.7145 3.80844C17.7145 2.22996 18.9773 0.967163 20.5558 0.967163C21.8185 0.967163 22.9761 1.80903 23.2918 2.96658C23.5022 2.96658 23.7127 2.96658 23.9232 2.96658C24.2389 2.01949 25.0807 1.3881 26.133 1.3881C27.3958 1.3881 28.4482 2.44042 28.4482 3.7032C28.4482 4.96598 27.3958 6.0183 26.133 6.0183C26.0278 6.0183 25.9226 6.0183 25.8174 6.0183C25.7121 6.33399 25.6069 6.54445 25.3964 6.75492V6.86016C25.3964 8.12294 24.3441 9.17525 23.0813 9.17525C22.9761 9.17525 22.8708 9.17525 22.7656 9.17525C22.4499 10.1223 21.6081 10.7537 20.5558 10.7537C19.8191 10.7537 19.0825 10.3328 18.6616 9.70141C18.0302 10.0171 17.2936 10.0171 16.6622 9.80665C16.4517 11.0694 15.5046 11.8061 14.4523 11.8061ZM14.4523 8.22817C13.7157 8.22817 13.0843 8.85957 13.0843 9.59619C13.0843 10.3328 13.7157 10.9642 14.4523 10.9642C15.1889 10.9642 15.8203 10.3328 15.8203 9.59619C15.8203 9.49096 15.8203 9.49095 15.8203 9.38571C15.8203 9.17525 15.8203 8.96479 16.0308 8.85956C16.2412 8.75432 16.4517 8.75432 16.5569 8.85956C16.8726 9.07002 17.2936 9.17525 17.6092 9.17525C18.0302 9.17525 18.3459 9.07002 18.6616 8.85956C18.7668 8.75432 18.9773 8.75433 19.0825 8.75433C19.1877 8.75433 19.293 8.85957 19.3982 9.07003C19.6087 9.59619 20.1348 9.91187 20.661 9.91187C21.3976 9.91187 21.9238 9.38572 22.029 8.64909C22.029 8.54386 22.1342 8.33341 22.2394 8.22817C22.3447 8.12294 22.5552 8.12294 22.6604 8.22817C22.7656 8.33341 22.9761 8.3334 23.1866 8.3334C23.9232 8.3334 24.5546 7.70202 24.5546 6.96539C24.5546 6.86016 24.5546 6.86015 24.5546 6.75492C24.5546 6.54445 24.5546 6.43923 24.6598 6.334C24.8703 6.12353 25.0807 5.80784 25.0807 5.38692C25.0807 5.28168 25.186 5.07121 25.2912 4.96598C25.3964 4.86075 25.6069 4.86075 25.7121 4.96598C25.8173 5.07121 26.0278 5.07122 26.2383 5.07122C26.9749 5.07122 27.6063 4.43982 27.6063 3.7032C27.6063 2.96658 26.9749 2.33518 26.2383 2.33518C25.5017 2.33518 24.9755 2.86134 24.8702 3.59796C24.8702 3.70319 24.765 3.91367 24.6598 4.0189C24.5546 4.12413 24.3441 4.12413 24.2389 4.0189C24.0284 3.91367 23.8179 3.91366 23.7127 3.91366C23.6075 3.91366 23.397 3.91367 23.1866 4.0189C23.0813 4.0189 22.8708 4.0189 22.7656 4.0189C22.6604 3.91367 22.5552 3.80843 22.5552 3.7032C22.4499 2.75611 21.6081 2.01948 20.661 2.01948C19.6086 2.01948 18.7668 2.86134 18.7668 3.91366C18.7668 4.12412 18.7668 4.33459 18.872 4.54506C18.9773 4.75552 18.872 4.96598 18.7668 5.07122C18.6616 5.17645 18.4511 5.17644 18.2406 5.17644C18.0302 5.07121 17.8197 5.07122 17.6092 5.07122C16.6622 5.07122 15.7151 6.33399 15.7151 7.28108C15.7151 7.49154 15.7151 7.702 15.8203 7.80724C15.9256 8.0177 15.8203 8.22816 15.7151 8.3334C15.6099 8.43863 15.3994 8.43863 15.1889 8.43863C14.8732 8.3334 14.6628 8.22817 14.4523 8.22817Z" fill="#0568C3"/>
<path d="M44.8645 32.3263H24.0286C23.8181 32.3263 23.6077 32.1158 23.6077 31.9053V25.4862C23.6077 25.2757 23.7129 25.0653 23.9233 25.0653L31.8157 22.7502V20.2246C31.8157 20.0141 31.921 19.8037 32.1315 19.8037L44.654 15.0682C44.7593 15.0682 44.9697 15.0682 45.075 15.1735C45.1802 15.2787 45.2854 15.3839 45.2854 15.5944V31.9053C45.2854 32.1158 45.075 32.3263 44.8645 32.3263ZM24.5547 31.3792H44.3383V16.2258L32.6576 20.3298V22.8554C32.6576 23.0659 32.5524 23.2763 32.3419 23.2763L24.4495 25.5914V31.3792H24.5547Z" fill="#0568C3"/>
<path d="M7.47656 60.9671H19.7477" stroke="#0568C3" stroke-width="1.5" stroke-linecap="round"/>
<path d="M26.6501 60.9671L48.8915 60.9671" stroke="#0568C3" stroke-width="1.5" stroke-linecap="round"/>
</svg>
